<svg width="13" height="7" viewBox="0 0 13 7" fill="none" xmlns="http://www.w3.org/2000/svg">
<mask id="path-1-inside-1_1_181" fill="white">
<path d="M6.178 6.19011C6.20386 6.19484 6.22997 6.19754 6.25616 6.19819C6.28205 6.19891 6.30796 6.19779 6.33373 6.19482C6.45126 6.19482 6.56879 6.20088 6.68632 6.20088C7.65392 6.20769 8.61935 6.09479 9.56581 5.86414C9.59444 5.85934 9.62272 5.85213 9.65043 5.84259C9.75621 5.81498 9.86669 5.79208 9.9707 5.76245C11.2106 5.39069 11.9793 4.89636 12.3213 4.25049C12.8502 3.24364 11.9299 2.20986 10.8898 1.57881C9.87938 1.00938 8.80336 0.607767 7.69414 0.386083C7.35187 0.305479 6.99575 0.366066 6.68867 0.557146C6.52031 0.662033 6.38011 0.81758 6.28319 1.00703C3.18979 1.0966 0.897949 2.18427 0.897949 3.59857C0.897949 4.99401 3.11281 6.07898 6.178 6.18809V6.19011ZM11.5145 3.90567C11.1059 4.43734 10.5514 4.79364 9.9425 4.91589L10.1017 2.07314C10.2009 2.12657 10.2967 2.18112 10.3891 2.2368C10.5442 2.33378 11.8958 3.18236 11.5139 3.90567H11.5145ZM7.06829 1.43334V1.42593C7.07412 1.37918 7.08972 1.33475 7.11377 1.2964C7.13781 1.25806 7.16959 1.22694 7.20639 1.2057C7.28677 1.15419 7.38068 1.13768 7.47083 1.15923C8.06752 1.29177 8.65634 1.46722 9.23379 1.68455L9.03869 5.16777C8.28421 5.3245 7.51891 5.40271 6.75213 5.40146L7.06829 1.43334ZM6.14568 1.81183L5.86125 5.3725C3.40663 5.21491 1.78824 4.3569 1.78824 3.59857C1.78824 2.8079 3.5512 1.92228 6.1445 1.80981L6.14568 1.81183Z"/>
</mask>
<path d="M6.178 6.19011C6.20386 6.19484 6.22997 6.19754 6.25616 6.19819C6.28205 6.19891 6.30796 6.19779 6.33373 6.19482C6.45126 6.19482 6.56879 6.20088 6.68632 6.20088C7.65392 6.20769 8.61935 6.09479 9.56581 5.86414C9.59444 5.85934 9.62272 5.85213 9.65043 5.84259C9.75621 5.81498 9.86669 5.79208 9.9707 5.76245C11.2106 5.39069 11.9793 4.89636 12.3213 4.25049C12.8502 3.24364 11.9299 2.20986 10.8898 1.57881C9.87938 1.00938 8.80336 0.607767 7.69414 0.386083C7.35187 0.305479 6.99575 0.366066 6.68867 0.557146C6.52031 0.662033 6.38011 0.81758 6.28319 1.00703C3.18979 1.0966 0.897949 2.18427 0.897949 3.59857C0.897949 4.99401 3.11281 6.07898 6.178 6.18809V6.19011ZM11.5145 3.90567C11.1059 4.43734 10.5514 4.79364 9.9425 4.91589L10.1017 2.07314C10.2009 2.12657 10.2967 2.18112 10.3891 2.2368C10.5442 2.33378 11.8958 3.18236 11.5139 3.90567H11.5145ZM7.06829 1.43334V1.42593C7.07412 1.37918 7.08972 1.33475 7.11377 1.2964C7.13781 1.25806 7.16959 1.22694 7.20639 1.2057C7.28677 1.15419 7.38068 1.13768 7.47083 1.15923C8.06752 1.29177 8.65634 1.46722 9.23379 1.68455L9.03869 5.16777C8.28421 5.3245 7.51891 5.40271 6.75213 5.40146L7.06829 1.43334ZM6.14568 1.81183L5.86125 5.3725C3.40663 5.21491 1.78824 4.3569 1.78824 3.59857C1.78824 2.8079 3.5512 1.92228 6.1445 1.80981L6.14568 1.81183Z" fill="white"/>
<path d="M6.178 6.19011H-3.822V14.5258L4.3775 16.0267L6.178 6.19011ZM6.25616 6.19819L6.53608 -3.79789L6.5198 -3.79835L6.50351 -3.79875L6.25616 6.19819ZM6.33373 6.19482V-3.80518H5.75981L5.18966 -3.73952L6.33373 6.19482ZM6.68632 6.20088L6.75666 -3.79887L6.72149 -3.79912H6.68632V6.20088ZM9.56581 5.86414L7.91039 -3.99788L7.55163 -3.93766L7.19819 -3.85153L9.56581 5.86414ZM9.65043 5.84259L7.12463 -3.83317L6.75528 -3.73675L6.39435 -3.61246L9.65043 5.84259ZM9.9707 5.76245L12.7106 15.3798L12.7767 15.3609L12.8426 15.3412L9.9707 5.76245ZM12.3213 4.25049L21.1587 8.93028L21.1665 8.91557L21.1742 8.90084L12.3213 4.25049ZM10.8898 1.57881L16.0768 -6.97077L15.9394 -7.05409L15.7995 -7.13296L10.8898 1.57881ZM7.69414 0.386083L5.40191 10.1198L5.56751 10.1588L5.73434 10.1922L7.69414 0.386083ZM6.68867 0.557146L1.40552 -7.93334L1.40089 -7.93046L6.68867 0.557146ZM6.28319 1.00703L6.57263 11.0028L12.4895 10.8315L15.1857 5.56176L6.28319 1.00703ZM6.178 6.18809H16.178V-3.4623L6.53372 -3.80559L6.178 6.18809ZM11.5145 3.90567L19.4434 9.99932L31.8119 -6.09433H11.5145V3.90567ZM9.9425 4.91589L-0.0418495 4.35655L-0.764994 17.265L11.9108 14.7203L9.9425 4.91589ZM10.1017 2.07314L14.8468 -6.72941L0.997422 -14.1949L0.117404 1.51381L10.1017 2.07314ZM10.3891 2.2368L15.6898 -6.24274L15.6191 -6.28694L15.5477 -6.32996L10.3891 2.2368ZM11.5139 3.90567L2.67116 -0.76406L-5.07575 13.9057H11.5139V3.90567ZM7.06829 1.43334L17.0367 2.22756L17.0683 1.83108V1.43334H7.06829ZM7.06829 1.42593L-2.85488 0.188753L-2.93171 0.804957V1.42593H7.06829ZM7.20639 1.2057L12.2044 9.86712L12.4063 9.7506L12.6026 9.62478L7.20639 1.2057ZM7.47083 1.15923L5.14586 10.8852L5.22406 10.9039L5.30255 10.9213L7.47083 1.15923ZM9.23379 1.68455L19.2181 2.24378L19.6288 -5.08797L12.7562 -7.67455L9.23379 1.68455ZM9.03869 5.16777L11.0726 14.9587L18.5935 13.3964L19.023 5.727L9.03869 5.16777ZM6.75213 5.40146L-3.21628 4.60724L-4.07489 15.3838L6.73585 15.4015L6.75213 5.40146ZM6.14568 1.81183L16.1139 2.60809L16.3632 -0.512511L14.7885 -3.21819L6.14568 1.81183ZM5.86125 5.3725L5.22055 15.352L15.0456 15.9828L15.8295 6.16876L5.86125 5.3725ZM6.1445 1.80981L14.7874 -3.22021L11.748 -8.44261L5.71121 -8.1808L6.1445 1.80981ZM4.3775 16.0267C4.91412 16.1249 5.4595 16.1815 6.0088 16.1951L6.50351 -3.79875C7.00045 -3.78646 7.4936 -3.73522 7.97849 -3.64647L4.3775 16.0267ZM5.97623 16.1943C6.47838 16.2083 6.98015 16.1865 7.4778 16.1292L5.18966 -3.73952C5.63576 -3.79089 6.08572 -3.8105 6.53608 -3.79789L5.97623 16.1943ZM6.33373 16.1948C6.27895 16.1948 6.24029 16.1941 6.22852 16.1939C6.22032 16.1937 6.2175 16.1936 6.25225 16.1945C6.27626 16.1951 6.33785 16.1968 6.40481 16.1981C6.47535 16.1994 6.57277 16.2009 6.68632 16.2009V-3.79912C6.7411 -3.79912 6.77975 -3.79842 6.79153 -3.7982C6.79972 -3.79804 6.80255 -3.79793 6.76779 -3.79883C6.74378 -3.79945 6.68219 -3.80107 6.61523 -3.80236C6.54469 -3.80373 6.44727 -3.80518 6.33373 -3.80518V16.1948ZM6.61598 16.2006C8.4104 16.2133 10.1945 16.0036 11.9334 15.5798L7.19819 -3.85153C7.04419 -3.81401 6.89745 -3.79788 6.75666 -3.79887L6.61598 16.2006ZM11.2212 15.7262C11.799 15.6292 12.3625 15.485 12.9065 15.2976L6.39435 -3.61246C6.88295 -3.78072 7.38985 -3.91051 7.91039 -3.99788L11.2212 15.7262ZM12.1762 15.5184C12.121 15.5328 12.0832 15.5419 12.0802 15.5426C12.0782 15.5431 12.0795 15.5428 12.0901 15.5402C12.0956 15.5389 12.1197 15.5332 12.1377 15.5289C12.178 15.5192 12.2554 15.5007 12.3464 15.4776C12.4392 15.4541 12.5647 15.4213 12.7106 15.3798L7.23079 -3.85487C7.32465 -3.88161 7.39742 -3.90044 7.43686 -3.91043C7.47463 -3.91999 7.49825 -3.92556 7.48472 -3.92233C7.47586 -3.92021 7.47298 -3.91953 7.45155 -3.91442C7.4352 -3.91052 7.40962 -3.90441 7.3807 -3.89742C7.32401 -3.88372 7.2327 -3.86138 7.12463 -3.83317L12.1762 15.5184ZM12.8426 15.3412C14.8224 14.7476 18.89 13.2146 21.1587 8.93028L3.48391 -0.429294C4.29922 -1.96893 5.38792 -2.8605 6.07315 -3.30123C6.4132 -3.51995 6.68774 -3.65096 6.84881 -3.72051C6.93242 -3.75661 6.99628 -3.78081 7.03657 -3.79527C7.077 -3.80977 7.09869 -3.81625 7.09881 -3.81629L12.8426 15.3412ZM21.1742 8.90084C23.5863 4.30892 22.219 -0.0922701 20.637 -2.5849C19.2276 -4.80546 17.3553 -6.19509 16.0768 -6.97077L5.70282 10.1284C5.46443 9.98376 4.57228 9.42654 3.75088 8.13235C3.29797 7.41874 2.71276 6.22991 2.53066 4.6233C2.33541 2.90075 2.65981 1.13943 3.46838 -0.399854L21.1742 8.90084ZM15.7995 -7.13296C13.8933 -8.20724 11.8243 -8.98625 9.65394 -9.42L5.73434 10.1922C5.78247 10.2018 5.8655 10.226 5.98009 10.2906L15.7995 -7.13296ZM9.98637 -9.34766C6.97247 -10.0574 3.89953 -9.48522 1.40553 -7.93334L11.9718 9.04764C10.092 10.2174 7.73126 10.6684 5.40191 10.1198L9.98637 -9.34766ZM1.40089 -7.93046C-0.419025 -6.79665 -1.75881 -5.22959 -2.6193 -3.54771L15.1857 5.56176C14.519 6.86475 13.4596 8.12072 11.9764 9.04475L1.40089 -7.93046ZM5.99375 -8.98878C3.4971 -8.91649 0.678851 -8.44356 -1.89123 -7.21186C-3.86596 -6.26548 -9.10205 -3.08313 -9.10205 3.59857H10.8979C10.8979 6.14402 9.81746 8.06083 8.84593 9.17654C7.95185 10.2033 7.0814 10.6662 6.75232 10.8239C6.10151 11.1358 5.97588 11.0201 6.57263 11.0028L5.99375 -8.98878ZM-9.10205 3.59857C-9.10205 10.1609 -4.03827 13.362 -2.01354 14.3547C0.544051 15.6086 3.34719 16.0937 5.82228 16.1818L6.53372 -3.80559C5.94362 -3.82659 6.10673 -3.93853 6.7906 -3.60326C7.13925 -3.43233 8.01368 -2.95257 8.9009 -1.91217C9.86424 -0.782505 10.8979 1.11272 10.8979 3.59857H-9.10205ZM-3.822 6.18809V6.19011H16.178V6.18809H-3.822ZM3.58556 -2.18798C4.52305 -3.40781 6.01647 -4.49547 7.97421 -4.88849L11.9108 14.7203C15.0864 14.0827 17.6887 12.2825 19.4434 9.99932L3.58556 -2.18798ZM19.9268 5.47522L20.0861 2.63248L0.117404 1.51381L-0.0418495 4.35655L19.9268 5.47522ZM5.35673 10.8757C5.32211 10.857 5.27973 10.8332 5.23055 10.8035L15.5477 -6.32996C15.3136 -6.47092 15.0796 -6.60388 14.8468 -6.72941L5.35673 10.8757ZM5.08841 10.7163C5.08958 10.7171 4.59894 10.4336 4.0239 9.84901C3.76283 9.58361 2.90371 8.68627 2.27711 7.16768C1.5451 5.39365 1.02379 2.35545 2.67116 -0.76406L20.3566 8.5754C22.195 5.09424 21.6479 1.67873 20.7651 -0.460874C19.9876 -2.34504 18.8525 -3.59621 18.2819 -4.17629C17.0878 -5.39023 15.8438 -6.1465 15.6898 -6.24274L5.08841 10.7163ZM11.5139 13.9057H11.5145V-6.09433H11.5139V13.9057ZM17.0683 1.43334V1.42593H-2.93171V1.43334H17.0683ZM16.9915 2.66311C16.8243 4.00376 16.3689 5.36024 15.5858 6.60901L-1.35832 -4.01621C-2.18947 -2.69075 -2.67608 -1.24539 -2.85488 0.188753L16.9915 2.66311ZM15.5858 6.60901C14.8008 7.86099 13.6735 9.01937 12.2044 9.86712L2.2084 -7.45571C0.665657 -6.56549 -0.525146 -5.34488 -1.35832 -4.01621L15.5858 6.60901ZM12.6026 9.62478C10.4711 10.991 7.78793 11.5168 5.14586 10.8852L9.7958 -8.56674C6.97343 -9.24142 4.10243 -8.68259 1.81018 -7.21338L12.6026 9.62478ZM5.30255 10.9213C5.43461 10.9507 5.57108 10.9908 5.71139 11.0436L12.7562 -7.67455C11.7416 -8.05641 10.7004 -8.36713 9.63911 -8.60286L5.30255 10.9213ZM-0.750564 1.12531L-0.945663 4.60853L19.023 5.727L19.2181 2.24378L-0.750564 1.12531ZM7.00481 -4.62321C6.92132 -4.60587 6.84299 -4.5984 6.76842 -4.59852L6.73585 15.4015C8.19482 15.4038 9.6471 15.2549 11.0726 14.9587L7.00481 -4.62321ZM16.7205 6.19569L17.0367 2.22756L-2.90012 0.639115L-3.21628 4.60724L16.7205 6.19569ZM-3.82257 1.01558L-4.10699 4.57625L15.8295 6.16876L16.1139 2.60809L-3.82257 1.01558ZM6.50196 -4.60695C6.18653 -4.6272 6.43568 -4.67361 7.10161 -4.36566C7.40707 -4.2244 8.2354 -3.81013 9.14054 -2.90754C9.96679 -2.08362 11.7882 0.118023 11.7882 3.59857H-8.21176C-8.21176 7.45828 -6.18801 10.0515 -4.98161 11.2546C-3.6963 12.5362 -2.30996 13.317 -1.29308 13.7873C0.795703 14.7532 3.08136 15.2146 5.22055 15.352L6.50196 -4.60695ZM11.7882 3.59857C11.7882 7.23697 9.80736 9.47464 9.00029 10.2432C8.08711 11.1128 7.2709 11.494 6.99858 11.613C6.3894 11.8792 6.21391 11.8162 6.57779 11.8004L5.71121 -8.1808C3.48179 -8.08411 1.12817 -7.64807 -1.01081 -6.71323C-2.04804 -6.25992 -3.46707 -5.50203 -4.79184 -4.24051C-6.01051 -3.08003 -8.21176 -0.435166 -8.21176 3.59857H11.7882ZM-2.49835 6.83984L-2.49717 6.84186L14.7885 -3.21819L14.7874 -3.22021L-2.49835 6.83984Z" fill="white" mask="url(#path-1-inside-1_1_181)"/>
</svg>
